<?xml version="1.0" encoding="UTF-8"?>
<svg id="Calque_1" data-name="Calque 1" xmlns="http://www.w3.org/2000/svg" version="1.1" viewBox="0 0 129.5 129.5">
  <defs>
    <style>
      .cls-1 {
        fill: #b9c4e1;
      }

      .cls-1, .cls-2 {
        stroke-width: 0px;
      }

      .cls-2 {
        fill: #fff;
      }
    </style>
  </defs>
  <circle class="cls-1" cx="64.5" cy="64.8" r="64.8" transform="translate(-27 64.6) rotate(-45)"/>
  <ellipse class="cls-2" cx="64.5" cy="54.2" rx="25.2" ry="32.6"/>
  <path class="cls-2" d="M64.5,89.2c-21.1,0-39.6,6.4-50.5,16.2,11.9,14.7,30.1,24.2,50.5,24.2s38.6-9.4,50.5-24.2c-10.8-9.8-29.4-16.2-50.5-16.2Z"/>
  <rect class="cls-2" x="52.1" y="64.8" width="24.9" height="41.1" rx="9.6" ry="9.6"/>
  <path class="cls-2" d="M42.8,55.7c1.5,4.2.9,8.3-1.3,9s-5.1-2.1-6.6-6.3c-1.5-4.2-.9-8.3,1.3-9s5.1,2.1,6.6,6.3Z"/>
  <path class="cls-2" d="M86.2,55.7c-1.5,4.2-.9,8.3,1.3,9s5.1-2.1,6.6-6.3c1.5-4.2.9-8.3-1.3-9s-5.1,2.1-6.6,6.3Z"/>
  <path class="cls-2" d="M42.5,55.6c-3.3-6-6.6-12.3-6.5-19.1.2-6.8,5.3-14,12.1-13.7,1.2,0,2.4.3,3.5.1,2.3-.3,4.1-2.3,6-3.7,4.3-3.2,10.3-3.9,15.2-1.9,3.1,1.2,5.7,3.4,8.6,4.8,5.6,2.6,12.4,2.4,17.8-.7-1.1,2.1-3,3.8-5.2,4.6,2,.6,4.3.6,6.3-.2-1.2,2.2-3.2,3.9-5.5,4.8,1.7.1,3.4.2,5.2.4-1.5,2.1-3.6,3.7-6,4.6,1.4,0,2.7,0,4.1.1-1,3-3.6,5.4-6.7,6.1.9,0,1.7,0,2.6,0-2.9,4.1-5.7,8.2-8.6,12.4-.8,1.2-1.7,2.4-2.9,3.2-1,.6-2.2.9-3.3,1.2-8.5,1.9-17.2,2.5-25.8,1.7-3-.3-6-.8-8.4-2.6s-3.6-5.4-2-7.8"/>
  <path class="cls-2" d="M48.3,95.4c.2-3.4.6-6.8,1.3-10.2,1.7,1.9,4.6,2.2,7.1,2.3,3.9.2,7.8.3,11.6.5.5,2.6.8,5.8-1.1,7.6-.9.9-2.1,1.3-3.3,1.6-2.6.7-5.3,1.1-8,1.1-3.2,0-7.1-.9-8.1-4,.3-.3.7-.6,1-.9"/>
  <path class="cls-2" d="M80.8,95.4c-.2-3.4-.6-6.8-1.3-10.2-1.7,1.9-4.6,2.2-7.1,2.3-3.9.2-7.8.3-11.6.5-.5,2.6-.8,5.8,1.1,7.6.9.9,2.1,1.3,3.3,1.6,2.6.7,5.3,1.1,8,1.1,3.2,0,7.1-.9,8.1-4-.3-.3-.7-.6-1-.9"/>
</svg>